<?xml version="1.0" encoding="UTF-8" standalone="no"?> <svg id="Layer_1" data-name="Layer 1" xmlns="http://www.w3.org/2000/svg" viewBox="0 0 128 128"><defs><style>.cls-1{fill:#2e79bd;}.cls-2{fill:#2d3e50;}</style></defs><title>b</title><path class="cls-1" d="M72.868,61.5451c-1.56373-.11026-1.26431-1.60135-.9544-2.77317l2.62028-9.90746a4.44369,4.44369,0,0,0-8.58608-2.29439c-.38258,1.41681-3.44412,14.052-3.463,14.13107-.42814,1.79513-.94019,4.08955-.15085,5.859,1.19749,2.684,4.83438,1.90445,7.044,1.26554A17.61376,17.61376,0,0,0,73.69726,65.939a39.6279,39.6279,0,0,0,4.39855-3.48087l-.29325-2.947C76.61854,60.45628,74.44881,61.65659,72.868,61.5451Z"/><path class="cls-1" d="M73.92314,27.01274a6.64714,6.64714,0,0,0-6.69775,6.1474,5.06425,5.06425,0,0,0,.74729,2.85611c2.04487,3.3087,6.74271,2.58815,9.28248.30448C80.60732,33.3066,78.36225,27.291,73.92314,27.01274Z"/><path class="cls-2" d="M70.8649,3.044A45.23162,45.23162,0,0,0,24.86615,48.29711c0,.246,0,1.768.01539,4.14323-.392,2.48292-2.24462,4.53532-3.96649,6.23416-1.54509,1.522-6.11114,5.83437-6.73378,6.59537a7.81273,7.81273,0,0,0-1.41437,2.44449c-.50737,1.55273.29211,2.30609,1.5297,3.07478a24.18166,24.18166,0,0,0,2.75964,1.4451c.89936.42282,1.80642.80717,2.71347,1.19921a6.58508,6.58508,0,0,1,1.45285.67641l.20756.25368s3.67434,24.2139,3.70507,24.43686a8.35269,8.35269,0,0,0,2.29074,5.37317c2.652,2.42906,6.83367,1.85254,10.13909,1.84484,2.3599,0,4.71211-.00769,7.072-.01534h.47663c.123.44581.79173,11.36129,1.2145,17.41092a1.66568,1.66568,0,0,0,1.99094,1.51435l52.98617-10.53883a3.603,3.603,0,0,0,2.90564-3.52833v-9.624A88.507,88.507,0,0,1,111.698,66.2077,45.267,45.267,0,0,0,70.8649,3.044Zm-.47016,75.51639A30.83623,30.83623,0,1,1,101.231,47.72415,30.83624,30.83624,0,0,1,70.39474,78.56041Z"/></svg>