<svg width="40" height="28" viewBox="0 0 40 28" fill="#3F5368" xmlns="http://www.w3.org/2000/svg">
<path d="M30.7989 13.9838L31.1111 19.3323C31.25 21.7188 26.1289 23.6656 20 23.6656C13.8711 23.6656 8.75 21.7188 8.88889 19.3323L9.20111 13.9838L19.1667 17.0475C19.4444 17.132 19.7222 17.1656 20 17.1656C20.2778 17.1656 20.5556 17.132 20.8333 17.0475L30.7989 13.9838ZM40 8.5C40 8.73725 39.8433 8.93983 39.6178 9.02433L20.1733 14.9827C20.1033 15 20.0522 15 20 15C19.9478 15 19.8956 15 19.8267 14.9827L8.50778 11.4954C7.51778 12.257 6.82333 14.1193 6.68444 16.404C7.34444 16.7767 7.77778 17.4538 7.77778 18.2489C7.77778 19.0105 7.37889 19.6713 6.77111 20.0602L7.77778 27.3901C7.79556 27.5428 7.74333 27.6945 7.63889 27.8137C7.53444 27.9328 7.37889 28 7.22222 28H3.88889C3.73222 28 3.57667 27.9317 3.47222 27.8137C3.36778 27.6956 3.31556 27.5428 3.33333 27.3901L4.34 20.0602C3.73222 19.6713 3.33333 19.0105 3.33333 18.2489C3.33333 17.4364 3.80222 16.742 4.46222 16.3704C4.56667 14.3901 5.08667 12.257 6.16333 10.7848L0.382222 9.02433C0.156667 8.93983 0 8.73617 0 8.5C0 8.26383 0.156667 8.06017 0.382222 7.97567L19.8267 2.01733C19.8967 2 19.9478 2 20 2C20.0522 2 20.1044 2 20.1733 2.01733L39.6178 7.97567C39.8433 8.06017 40 8.26383 40 8.5Z" fill="#3F5368"/>
</svg>
