<svg width="32" height="32" viewBox="0 0 32 32" fill="none" xmlns="http://www.w3.org/2000/svg">
<g clip-path="url(#clip0)">
<path d="M16 8.40771L4.58734 17.8162C4.58734 17.8295 4.58401 17.8491 4.57733 17.8757C4.5708 17.9021 4.56732 17.9213 4.56732 17.9349V27.4621C4.56732 27.806 4.69308 28.1041 4.94454 28.3552C5.19592 28.6064 5.49361 28.7327 5.83766 28.7327H13.4592V21.1108H18.5409V28.733H26.1623C26.5063 28.733 26.8044 28.6069 27.0554 28.3552C27.3069 28.1044 27.4331 27.8061 27.4331 27.4621V17.9349C27.4331 17.8821 27.4258 17.8422 27.413 17.8162L16 8.40771Z" fill="white"/>
<path d="M31.7792 15.6725L27.4326 12.0601V3.96188C27.4326 3.77675 27.3731 3.6245 27.2537 3.50534C27.1352 3.38633 26.983 3.32682 26.7974 3.32682H22.9866C22.8013 3.32682 22.6491 3.38633 22.5299 3.50534C22.4109 3.6245 22.3515 3.77682 22.3515 3.96188V7.83229L17.5086 3.78308C17.0856 3.43902 16.5827 3.26703 16.0004 3.26703C15.4182 3.26703 14.9153 3.43902 14.4919 3.78308L0.220496 15.6725C0.0881988 15.7782 0.0156893 15.9204 0.00220237 16.0991C-0.011215 16.2776 0.0350159 16.4336 0.141034 16.5658L1.37161 18.0346C1.47763 18.1536 1.61639 18.2264 1.78845 18.253C1.94731 18.2664 2.10616 18.2199 2.26501 18.1141L16 6.66122L29.7351 18.1141C29.8412 18.2064 29.9799 18.2525 30.1519 18.2525H30.2116C30.3833 18.2263 30.5218 18.1531 30.6284 18.0343L31.8591 16.5657C31.9649 16.4332 32.0113 16.2776 31.9975 16.0988C31.984 15.9206 31.9112 15.7784 31.7792 15.6725Z" fill="white"/>
</g>
<defs>
<clipPath id="clip0">
<rect width="32" height="32" fill="white"/>
</clipPath>
</defs>
</svg>
