<svg width="30" height="33" viewBox="0 0 30 33" fill="none" xmlns="http://www.w3.org/2000/svg">
<path d="M10 2.35714C15.5208 2.35714 20 6.83631 20 12.3571C20 17.878 15.5208 22.3571 10 22.3571C4.47917 22.3571 0 17.878 0 12.3571C0 6.83631 4.47917 2.35714 10 2.35714ZM15 13.073C15.2608 12.9296 15.4167 12.6563 15.4167 12.3571C15.4167 12.058 15.2608 11.7838 15 11.6413L7.91667 7.47464C7.66917 7.31881 7.34333 7.31881 7.08333 7.46131C6.8225 7.61714 6.66667 7.89131 6.66667 8.19048V16.5238C6.66667 16.823 6.8225 17.0971 7.08333 17.253C7.21333 17.318 7.35667 17.3571 7.5 17.3571C7.64333 17.3571 7.78667 17.318 7.91667 17.2396L15 13.073Z" fill="white"/>
</svg>
