<svg width="32" height="34" viewBox="0 0 32 34" fill="none" xmlns="http://www.w3.org/2000/svg">
<g clip-path="url(#clip0)">
<path d="M27.6923 8.5C27.6923 7.49457 26.8652 6.67857 25.8462 6.67857C24.8271 6.67857 24 7.49457 24 8.5C24 9.50543 24.8271 10.3214 25.8462 10.3214C26.8652 10.3214 27.6923 9.50543 27.6923 8.5ZM32 3.03571C32 9.33421 30.2314 13.5284 25.6726 18.0431C24.5575 19.125 23.2886 20.2446 21.9225 21.3824L21.5372 28.5734C21.5175 28.7628 21.4031 28.9534 21.2295 29.0664L13.8449 33.3164C13.7489 33.3734 13.6529 33.3929 13.5372 33.3929C13.3834 33.3929 13.2295 33.3358 13.0954 33.2216L11.8646 32.0074C11.7108 31.8361 11.6529 31.6091 11.7108 31.4002L13.3452 26.1642L7.94092 20.8323L2.63384 22.4449C2.576 22.4643 2.51815 22.4643 2.4603 22.4643C2.30646 22.4643 2.13292 22.4072 2.01846 22.2931L0.787689 21.0788C0.595689 20.8699 0.557535 20.5664 0.691689 20.3393L4.99938 13.0536C5.11507 12.8824 5.30707 12.7694 5.49907 12.75L12.7877 12.3699C13.9422 11.0233 15.0757 9.77014 16.1723 8.67C20.9797 3.94521 24.6535 2.42736 31.3452 2.42736C31.6911 2.42736 31.9988 2.69329 31.9988 3.0345L32 3.03571Z" fill="white"/>
</g>
<defs>
<clipPath id="clip0">
<rect width="32" height="34" fill="white"/>
</clipPath>
</defs>
</svg>
