<svg width="32" height="36" viewBox="0 0 32 36" fill="none" xmlns="http://www.w3.org/2000/svg">
<path d="M21.3333 18C21.3333 15.1676 18.9373 12.8571 16 12.8571C13.0627 12.8571 10.6667 15.1676 10.6667 18C10.6667 20.8324 13.0627 23.1429 16 23.1429C18.9373 23.1429 21.3333 20.8324 21.3333 18ZM32 15.8104V20.2706C32 20.5714 31.7507 20.934 31.416 20.9931L27.5613 21.5563C27.332 22.1991 27.0827 22.8021 26.7493 23.3846C27.4573 24.3694 28.208 25.2527 28.9787 26.1566C29.104 26.2967 29.1867 26.478 29.1867 26.6593C29.1867 26.8406 29.124 26.9807 28.9987 27.1209C28.4987 27.7637 25.6867 30.717 24.9773 30.717C24.7893 30.717 24.6027 30.636 24.436 30.5357L21.5613 28.3667C20.9573 28.6676 20.3107 28.9299 19.6653 29.1304C19.52 30.3557 19.3947 31.662 19.0613 32.8667C18.9773 33.1881 18.6867 33.4299 18.312 33.4299H13.6867C13.312 33.4299 12.9787 33.1689 12.9373 32.8269L12.3533 29.1304C11.708 28.9299 11.0827 28.6881 10.4787 28.3873L7.54133 30.537C7.396 30.6579 7.208 30.7183 7.02 30.7183C6.832 30.7183 6.64533 30.6373 6.49867 30.4971C5.39467 29.5329 3.936 28.287 3.06133 27.1221C2.95733 26.982 2.916 26.8213 2.916 26.6606C2.916 26.4793 2.97867 26.3391 3.08267 26.199C3.79067 25.2746 4.56133 24.3913 5.27067 23.4463C4.916 22.8034 4.62533 22.14 4.416 21.4573L0.604 20.9147C0.249333 20.8543 0 20.5329 0 20.1921V15.732C0 15.4311 0.249333 15.0686 0.562667 15.0094L4.43733 14.4463C4.64533 13.8034 4.916 13.2004 5.24933 12.5987C4.54133 11.6344 3.79067 10.7306 3.02 9.82672C2.89467 9.68658 2.812 9.52586 2.812 9.34458C2.812 9.16329 2.896 9.02315 3 8.883C3.5 8.21958 6.312 5.28686 7.02133 5.28686C7.20933 5.28686 7.396 5.36786 7.56267 5.48743L10.4373 7.63715C11.0413 7.33629 11.688 7.07401 12.3333 6.87343C12.4787 5.64815 12.604 4.34186 12.9373 3.13715C13.0213 2.81572 13.312 2.57401 13.6867 2.57401H18.312C18.6867 2.57401 19.02 2.835 19.0613 3.177L19.6453 6.87343C20.2907 7.07401 20.916 7.31572 21.52 7.61658L24.4787 5.46686C24.604 5.346 24.7907 5.28558 24.9787 5.28558C25.1667 5.28558 25.3533 5.36658 25.5 5.48615C26.604 6.47101 28.0627 7.71558 28.9373 8.901C29.0413 9.02186 29.0827 9.18258 29.0827 9.34329C29.0827 9.52458 29.02 9.66472 28.916 9.80486C28.208 10.7293 27.4373 11.6126 26.728 12.5576C27.0827 13.2004 27.3733 13.8639 27.5827 14.526L31.3947 15.0891C31.7493 15.1496 31.9987 15.471 31.9987 15.8117L32 15.8104Z" fill="#3F5368"/>
</svg>
