<svg width="32" height="35" viewBox="0 0 32 35" fill="none" xmlns="http://www.w3.org/2000/svg">
<path d="M19.2 6.875C19.2 6.3275 18.9402 5 19.84 5H26.24C29.4195 5 32 7.52 32 10.625V24.375C32 27.48 29.4195 30 26.24 30H19.84C19.4995 30 19.2 29.7075 19.2 29.375C19.2 28.8275 18.9402 27.5 19.84 27.5H26.24C28 27.5 29.44 26.0938 29.44 24.375L29.44 10.625C29.44 8.90625 28 7.5 26.24 7.5H20.48C19.9795 7.5 19.2 7.5975 19.2 6.875ZM0.640001 17.5C0.640001 17.1675 0.779522 16.855 1.02016 16.6213L11.9002 5.99625C12.1395 5.7625 12.4608 5.625 12.8 5.625C13.5002 5.625 14.08 6.19125 14.08 6.875V12.5L23.04 12.5C23.7402 12.5 24.32 13.0662 24.32 13.75V21.25C24.32 21.9338 23.7402 22.5 23.04 22.5H14.08V28.125C14.08 28.8088 13.5002 29.375 12.8 29.375C12.4595 29.375 12.1395 29.2388 11.9002 29.0038L1.02016 18.3787C0.780802 18.145 0.640001 17.8313 0.640001 17.5Z" fill="white"/>
</svg>
