<svg width="33" height="28" viewBox="0 0 33 28" fill="none" xmlns="http://www.w3.org/2000/svg">
<path d="M32.0012 10.5024C32.0012 10.8095 31.7514 11.1002 31.5015 11.322L24.5206 17.3666L26.1748 25.904C26.1945 26.0231 26.1945 26.1258 26.1945 26.2461C26.1945 26.6898 25.9643 27.0996 25.4055 27.0996C25.136 27.0996 24.8665 27.0143 24.6363 26.8952L16.0012 22.8659L7.36616 26.8952C7.11631 27.0143 6.86646 27.0996 6.59692 27.0996C6.03939 27.0996 5.78954 26.6898 5.78954 26.2461C5.78954 26.1269 5.80923 26.0242 5.82769 25.904L7.48185 17.3666L0.481231 11.322C0.251077 11.1002 0 10.8095 0 10.5024C0 9.98981 0.595692 9.78544 1.07692 9.71659L10.7311 8.46964L15.0585 0.700521C15.232 0.375943 15.5582 0 16.0012 0C16.4443 0 16.7705 0.375943 16.944 0.700521L21.2714 8.46964L30.9255 9.71659C31.3871 9.78544 32.0025 9.98981 32.0025 10.5024H32.0012Z" fill="#3F5368"/>
</svg>
