<svg width="32" height="30" viewBox="0 0 32 30" fill="none" xmlns="http://www.w3.org/2000/svg">
<g clip-path="url(#clip0)">
<path d="M9.88371 15C8.15038 15.0504 6.58345 15.8036 5.46665 17.1429H3.23305C1.56585 17.1429 -1.9484e-05 16.3393 -1.9484e-05 14.4814C-1.9484e-05 13.125 -0.0501527 8.57143 2.06611 8.57143C2.41598 8.57143 4.14931 9.99429 6.39891 9.99429C7.16585 9.99429 7.89865 9.86036 8.61545 9.60964C8.56531 9.97821 8.53225 10.3468 8.53225 10.7143C8.53225 12.2379 9.01545 13.7443 9.88265 15H9.88371ZM27.7333 25.6639C27.7333 28.3757 25.9498 30 23.2832 30H8.71678C6.05011 30 4.26665 28.3757 4.26665 25.6639C4.26665 21.8807 5.14985 16.0714 10.033 16.0714C10.5994 16.0714 12.6666 18.3986 16 18.3986C19.3333 18.3986 21.4005 16.0714 21.9669 16.0714C26.8501 16.0714 27.7333 21.8807 27.7333 25.6639ZM10.6666 4.28571C10.6666 6.64607 8.74985 8.57143 6.39998 8.57143C4.05011 8.57143 2.13331 6.64607 2.13331 4.28571C2.13331 1.92536 4.05011 0 6.39998 0C8.74985 0 10.6666 1.92536 10.6666 4.28571ZM22.4 10.7143C22.4 14.2639 19.5328 17.1429 16 17.1429C12.4672 17.1429 9.59998 14.2629 9.59998 10.7143C9.59998 7.16571 12.4672 4.28571 16 4.28571C19.5328 4.28571 22.4 7.16571 22.4 10.7143ZM32 14.4814C32 16.3393 30.433 17.1429 28.7669 17.1429H26.5333C25.4165 15.8036 23.8496 15.0504 22.1162 15C22.9824 13.7443 23.4666 12.2379 23.4666 10.7143C23.4666 10.3457 23.4336 9.97714 23.3834 9.60964C24.1002 9.86036 24.833 9.99429 25.6 9.99429C27.8496 9.99429 29.5829 8.57143 29.9328 8.57143C32.049 8.57143 31.9989 13.125 31.9989 14.4814H32ZM29.8666 4.28571C29.8666 6.64607 27.9498 8.57143 25.6 8.57143C23.2501 8.57143 21.3333 6.64607 21.3333 4.28571C21.3333 1.92536 23.2501 0 25.6 0C27.9498 0 29.8666 1.92536 29.8666 4.28571Z" fill="#3F5368"/>
</g>
<defs>
<clipPath id="clip0">
<rect width="32" height="30" fill="white"/>
</clipPath>
</defs>
</svg>
