<svg width="768" height="1149" viewBox="0 0 768 1149" fill="none" xmlns="http://www.w3.org/2000/svg">
<path d="M369.715 63.3874C485.51 94.0393 107.548 381.713 117.715 523.387C127.447 659.015 299.65 769.935 205.715 919.387C59.7935 1151.55 -414.722 876.341 -463.442 686.049C-518.158 472.334 165.715 9.38745 369.715 63.3874Z" fill="#48AF73"/>
<path d="M407.382 1068.49C310.332 979.284 609.376 657.525 590.168 451.159C571.778 253.6 432.444 116.363 501.897 -84.8786C609.787 -397.49 1050.05 6.44012 1105.91 289.135C1168.64 606.627 569.472 1217.49 407.382 1068.49Z" fill="#43B8D2" fill-opacity="0.6"/>
<path d="M1217.48 542.794C1059.91 570.444 987.251 438.246 853.94 345.787C726.318 257.275 581.678 242.502 550.988 85.1474C503.315 -159.292 894.518 -270.05 1110.41 -165.904C1352.88 -48.9386 1480.65 496.612 1217.48 542.794Z" fill="#2312E7" fill-opacity="0.37"/>
</svg>
