<svg width="48" height="48" viewBox="0 0 48 48" fill="none" xmlns="http://www.w3.org/2000/svg">
<path d="M42 18C40.35 18 39 19.35 39 21V33C39 34.65 40.35 36 42 36C43.65 36 45 34.65 45 33V21C45 19.35 43.65 18 42 18ZM6 18C4.35 18 3 19.35 3 21V33C3 34.65 4.35 36 6 36C7.65 36 9 34.65 9 33V21C9 19.35 7.65 18 6 18ZM10.5 34.5C10.5 36.985 12.515 39 15 39V45C15 46.65 16.35 48 18 48C19.65 48 21 46.65 21 45V39H27V45C27 46.65 28.35 48 30 48C31.65 48 33 46.65 33 45V39C35.485 39 37.5 36.985 37.5 34.5V18H10.5V34.5Z" fill="#2DA22B"/>
<path d="M37.416 14.9999C36.961 10.8799 34.65 7.32193 31.34 5.17293L32.841 2.17093C33.211 1.42993 32.911 0.528933 32.17 0.158933C31.429 -0.211067 30.528 0.0889329 30.158 0.829933L28.651 3.84293L28.26 3.68793C26.921 3.24293 25.489 3.00093 24 3.00093C22.511 3.00093 21.079 3.24293 19.74 3.68793L19.349 3.84293L17.842 0.829933C17.472 0.0889329 16.57 -0.211067 15.83 0.158933C15.09 0.528933 14.789 1.43093 15.159 2.17093L16.66 5.17293C13.35 7.32193 11.04 10.8809 10.584 14.9999V16.4999H37.501V14.9999H37.417H37.416ZM19.5 11.9999C18.672 11.9999 18 11.3279 18 10.4999C18 9.67293 18.67 9.00193 19.497 8.99993C19.499 8.99993 19.5 8.99993 19.501 8.99993C19.502 8.99993 19.503 8.99993 19.503 8.99993C20.33 9.00193 20.999 9.67293 20.999 10.4999C20.999 11.3279 20.327 11.9999 19.499 11.9999H19.5ZM28.5 11.9999C27.672 11.9999 27 11.3279 27 10.4999C27 9.67293 27.67 9.00193 28.496 8.99993C28.497 8.99993 28.498 8.99993 28.498 8.99993C28.498 8.99993 28.501 8.99993 28.503 8.99993C29.33 9.00193 30 9.67293 30 10.4999C30 11.3279 29.328 11.9999 28.5 11.9999Z" fill="#2DA22B"/>
</svg>
