<svg width="48" height="48" viewBox="0 0 48 48" fill="none" xmlns="http://www.w3.org/2000/svg">
<g clip-path="url(#clip0)">
<path d="M37.101 25.504C37.04 19.425 42.058 16.51 42.283 16.365C39.463 12.239 35.071 11.674 33.506 11.609C29.768 11.231 26.212 13.81 24.315 13.81C22.423 13.81 19.495 11.665 16.395 11.722C12.321 11.783 8.56399 14.091 6.46599 17.74C2.23299 25.085 5.38199 35.967 9.50799 41.924C11.524 44.84 13.928 48.115 17.084 47.998C20.123 47.877 21.273 46.031 24.948 46.031C28.623 46.031 29.656 47.998 32.872 47.937C36.143 47.876 38.215 44.965 40.217 42.04C42.532 38.657 43.485 35.382 43.542 35.214C43.469 35.181 37.164 32.765 37.101 25.505V25.504ZM31.058 7.665C32.733 5.633 33.864 2.813 33.555 0C31.142 0.098 28.217 1.607 26.486 3.635C24.932 5.434 23.573 8.305 23.937 11.062C26.631 11.272 29.381 9.693 31.057 7.665H31.058Z" fill="black"/>
</g>
<defs>
<clipPath id="clip0">
<rect width="48" height="48" fill="white"/>
</clipPath>
</defs>
</svg>
