<!-- Generated by IcoMoon.io -->
<svg version="1.1" xmlns="http://www.w3.org/2000/svg" width="48" height="48" viewBox="0 0 48 48">
<title>appleinc</title>
<path d="M37.101 25.504c-0.061-6.079 4.957-8.994 5.182-9.139-2.82-4.126-7.212-4.691-8.777-4.756-3.738-0.378-7.294 2.201-9.191 2.201-1.892 0-4.82-2.145-7.92-2.088-4.074 0.061-7.831 2.369-9.929 6.018-4.233 7.345-1.084 18.227 3.042 24.184 2.016 2.916 4.42 6.191 7.576 6.074 3.039-0.121 4.189-1.967 7.864-1.967s4.708 1.967 7.924 1.906c3.271-0.061 5.343-2.972 7.345-5.897 2.315-3.383 3.268-6.658 3.325-6.826-0.073-0.033-6.378-2.449-6.441-9.709zM31.058 7.665c1.675-2.032 2.806-4.852 2.497-7.665-2.413 0.098-5.338 1.607-7.069 3.635-1.554 1.799-2.913 4.67-2.549 7.427 2.694 0.21 5.444-1.369 7.12-3.397z"></path>
</svg>
