<svg width="48" height="48" viewBox="0 0 48 48" fill="none" xmlns="http://www.w3.org/2000/svg">
<g clip-path="url(#clip0)">
<path d="M48 20.121C48 10.703 45.244 3.061 41.837 3.001C41.851 3.001 41.864 3 41.878 3H37.99C37.99 3 28.859 9.86 15.714 12.551C15.313 14.674 15.056 17.204 15.056 20.121C15.056 23.038 15.312 25.568 15.714 27.691C28.859 30.382 37.99 37.242 37.99 37.242H41.878C41.864 37.242 41.851 37.241 41.837 37.24C45.245 37.18 48 29.539 48 20.12V20.121ZM40.539 34.652C40.099 34.652 39.623 34.195 39.379 33.923C38.787 33.264 38.217 32.237 37.73 30.954C36.64 28.084 36.039 24.236 36.039 20.12C36.039 16.004 36.639 12.156 37.73 9.286C38.217 8.003 38.788 6.977 39.379 6.317C39.623 6.045 40.099 5.588 40.539 5.588C40.979 5.588 41.455 6.045 41.699 6.317C42.291 6.976 42.861 8.003 43.348 9.286C44.438 12.156 45.039 16.004 45.039 20.12C45.039 24.236 44.439 28.084 43.348 30.954C42.861 32.237 42.29 33.263 41.699 33.923C41.455 34.195 40.979 34.652 40.539 34.652ZM11.804 20.121C11.804 17.686 11.983 15.32 12.322 13.132C10.101 13.439 8.15298 13.616 5.74398 13.616C2.60098 13.616 2.60098 13.616 2.60098 13.616L0.000976562 18.054V22.187L2.60098 26.625C2.60098 26.625 2.60098 26.625 5.74398 26.625C8.15298 26.625 10.102 26.802 12.322 27.109C11.983 24.922 11.804 22.555 11.804 20.12V20.121ZM17.257 30.102L11.257 28.953L15.093 44.025C15.292 44.805 16.065 45.199 16.813 44.899L22.37 42.675C23.117 42.376 23.417 41.552 23.035 40.843L17.256 30.101L17.257 30.102ZM40.539 25.722C40.369 25.722 40.186 25.546 40.092 25.441C39.864 25.187 39.644 24.791 39.456 24.297C39.036 23.191 38.804 21.708 38.804 20.121C38.804 18.534 39.035 17.052 39.456 15.945C39.644 15.451 39.864 15.055 40.092 14.801C40.186 14.696 40.369 14.52 40.539 14.52C40.709 14.52 40.892 14.696 40.986 14.801C41.214 15.055 41.434 15.451 41.622 15.945C42.042 17.051 42.274 18.534 42.274 20.121C42.274 21.708 42.043 23.19 41.622 24.297C41.434 24.791 41.214 25.187 40.986 25.441C40.892 25.546 40.709 25.722 40.539 25.722Z" fill="#48AF73"/>
</g>
<defs>
<clipPath id="clip0">
<rect width="48" height="48" fill="white"/>
</clipPath>
</defs>
</svg>
