<!-- Generated by IcoMoon.io -->
<svg version="1.1" xmlns="http://www.w3.org/2000/svg" width="48" height="48" viewBox="0 0 48 48">
<title>clipboard</title>
<path d="M43.5 6h-13.5c0-3.314-2.686-6-6-6s-6 2.686-6 6h-13.5c-0.828 0-1.5 0.672-1.5 1.5v39c0 0.828 0.672 1.5 1.5 1.5h39c0.828 0 1.5-0.672 1.5-1.5v-39c0-0.828-0.672-1.5-1.5-1.5zM24 3c1.657 0 3 1.343 3 3s-1.343 3-3 3c-1.657 0-3-1.343-3-3s1.343-3 3-3zM42 45h-36v-36h6v4.5c0 0.828 0.672 1.5 1.5 1.5h21c0.828 0 1.5-0.672 1.5-1.5v-4.5h6v36z"></path>
<path d="M21 40.243l-9.621-11.121 2.743-2.743 6.879 5.379 12.879-11.379 2.743 2.743z"></path>
</svg>
