<svg width="51" height="48" viewBox="0 0 51 48" fill="none" xmlns="http://www.w3.org/2000/svg">
<g clip-path="url(#clip0)">
<path d="M48 26.571V4.285C48 3.83 47.598 3.428 47.143 3.428H4.286C3.831 3.428 3.429 3.83 3.429 4.285V26.571C3.429 27.026 3.831 27.428 4.286 27.428H47.143C47.598 27.428 48 27.026 48 26.571ZM51.429 4.286V33.429C51.429 35.786 49.5 37.715 47.143 37.715H32.572C32.572 39.992 34.286 41.92 34.286 42.858C34.286 43.796 33.509 44.572 32.572 44.572H18.858C17.92 44.572 17.144 43.795 17.144 42.858C17.144 41.867 18.858 40.045 18.858 37.715H4.287C1.93 37.715 0.000999451 35.786 0.000999451 33.429V4.286C0.000999451 1.929 1.93 0 4.287 0H47.144C49.501 0 51.43 1.929 51.43 4.286H51.429Z" fill="#2F4793"/>
</g>
<defs>
<clipPath id="clip0">
<rect width="51" height="48" fill="white"/>
</clipPath>
</defs>
</svg>
