<!-- Generated by IcoMoon.io -->
<svg version="1.1" xmlns="http://www.w3.org/2000/svg" width="51" height="48" viewBox="0 0 51 48">
<title>desktop</title>
<path d="M48 26.571v-22.286c0-0.455-0.402-0.857-0.857-0.857h-42.857c-0.455 0-0.857 0.402-0.857 0.857v22.286c0 0.455 0.402 0.857 0.857 0.857h42.857c0.455 0 0.857-0.402 0.857-0.857zM51.429 4.286v29.143c0 2.357-1.929 4.286-4.286 4.286h-14.571c0 2.277 1.714 4.205 1.714 5.143s-0.777 1.714-1.714 1.714h-13.714c-0.938 0-1.714-0.777-1.714-1.714 0-0.991 1.714-2.813 1.714-5.143h-14.571c-2.357 0-4.286-1.929-4.286-4.286v-29.143c0-2.357 1.929-4.286 4.286-4.286h42.857c2.357 0 4.286 1.929 4.286 4.286z"></path>
</svg>
