<svg width="48" height="48" viewBox="0 0 48 48" fill="none" xmlns="http://www.w3.org/2000/svg">
<path d="M22.5 0C10.0734 0 0 9.17802 0 20.5C0 31.822 10.0734 41 22.5 41C34.9266 41 45 31.822 45 20.5C45 9.17802 34.9266 0 22.5 0ZM22.5 38.4375C19.7334 38.4375 17.1 37.9165 14.7113 36.9777L24.9572 26.4757C25.1859 26.2409 25.3125 25.9385 25.3125 25.6241V21.7804C25.3125 21.0731 24.6825 20.4991 23.9062 20.4991C18.9412 20.4991 13.7016 15.7961 13.6509 15.7491C13.3875 15.5091 13.0294 15.3741 12.6562 15.3741H7.03125C6.255 15.3741 5.625 15.9481 5.625 16.6554V24.3429C5.625 24.8281 5.92594 25.2722 6.40219 25.4892L11.25 27.6972V35.2199C6.15 31.9783 2.8125 26.5945 2.8125 20.4991C2.8125 17.7479 3.49312 15.1418 4.70812 12.8116H9.84375C10.2169 12.8116 10.5741 12.6767 10.8384 12.4367L16.4634 7.31167C16.7269 7.07165 16.875 6.74535 16.875 6.4054V3.30562C18.6572 2.82217 20.5453 2.56165 22.5 2.56165C25.5938 2.56165 28.5206 3.21252 31.1259 4.37162C30.9441 4.51171 30.7669 4.65863 30.5963 4.81323C29.0025 6.26531 28.125 8.19573 28.125 10.2491C28.125 12.3026 29.0025 14.233 30.5963 15.6851C32.1975 17.144 34.3416 17.9375 36.5569 17.9375C36.6956 17.9375 36.8353 17.9341 36.975 17.9281C37.5825 20.002 38.6775 25.4021 36.6056 32.8359C36.5859 32.9059 36.5747 32.976 36.5691 33.0451C32.9953 36.3713 28.0125 38.4366 22.5 38.4366V38.4375Z" fill="#415BA9"/>
</svg>
