<svg width="48" height="48" viewBox="0 0 48 48" fill="none" xmlns="http://www.w3.org/2000/svg">
<g clip-path="url(#clip0)">
<path d="M15.047 48C11.848 41.343 13.552 37.529 16.01 33.935C18.702 30 19.396 26.104 19.396 26.104C19.396 26.104 21.513 28.856 20.666 33.159C24.405 28.997 25.111 22.365 24.546 19.825C32.998 25.732 36.61 38.521 31.742 48C57.634 33.35 38.183 11.429 34.796 8.96C35.925 11.429 36.139 15.609 33.858 17.638C29.998 3 20.453 0 20.453 0C21.582 7.549 16.361 15.804 11.327 21.972C11.15 18.962 10.962 16.885 9.379 14.004C9.024 19.472 4.845 23.93 3.713 29.408C2.18 36.828 4.861 42.26 15.045 48H15.047Z" fill="#EE3A43"/>
</g>
<defs>
<clipPath id="clip0">
<rect width="48" height="48" fill="white"/>
</clipPath>
</defs>
</svg>
