<!-- Generated by IcoMoon.io -->
<svg version="1.1" xmlns="http://www.w3.org/2000/svg" width="48" height="48" viewBox="0 0 48 48">
<title>fire</title>
<path d="M15.047 48c-3.199-6.657-1.495-10.471 0.963-14.065 2.692-3.935 3.386-7.831 3.386-7.831s2.117 2.752 1.27 7.055c3.739-4.162 4.445-10.794 3.88-13.334 8.452 5.907 12.064 18.696 7.196 28.175 25.892-14.65 6.441-36.571 3.054-39.040 1.129 2.469 1.343 6.649-0.938 8.678-3.86-14.638-13.405-17.638-13.405-17.638 1.129 7.549-4.092 15.804-9.126 21.972-0.177-3.010-0.365-5.087-1.948-7.968-0.355 5.468-4.534 9.926-5.666 15.404-1.533 7.42 1.148 12.852 11.332 18.592z"></path>
</svg>
