<!-- Generated by IcoMoon.io -->
<svg version="1.1" xmlns="http://www.w3.org/2000/svg" width="51" height="48" viewBox="0 0 51 48">
<title>gamepad</title>
<path d="M22.286 29.143v-3.429c0-0.482-0.375-0.857-0.857-0.857h-5.143v-5.143c0-0.482-0.375-0.857-0.857-0.857h-3.429c-0.482 0-0.857 0.375-0.857 0.857v5.143h-5.143c-0.482 0-0.857 0.375-0.857 0.857v3.429c0 0.482 0.375 0.857 0.857 0.857h5.143v5.143c0 0.482 0.375 0.857 0.857 0.857h3.429c0.482 0 0.857-0.375 0.857-0.857v-5.143h5.143c0.482 0 0.857-0.375 0.857-0.857zM37.714 30.857c0-1.902-1.527-3.429-3.429-3.429s-3.429 1.527-3.429 3.429 1.527 3.429 3.429 3.429 3.429-1.527 3.429-3.429zM44.571 24c0-1.902-1.527-3.429-3.429-3.429s-3.429 1.527-3.429 3.429 1.527 3.429 3.429 3.429 3.429-1.527 3.429-3.429zM51.429 27.429c0 7.58-6.134 13.714-13.714 13.714-3.482 0-6.643-1.313-9.054-3.429h-5.893c-2.411 2.116-5.571 3.429-9.054 3.429-7.58 0-13.714-6.134-13.714-13.714s6.134-13.714 13.714-13.714h24c7.58 0 13.714 6.134 13.714 13.714z"></path>
</svg>
