<svg width="51" height="48" viewBox="0 0 51 48" fill="none" xmlns="http://www.w3.org/2000/svg">
<g clip-path="url(#clip0)">
<path d="M22.286 29.143V25.714C22.286 25.232 21.911 24.857 21.429 24.857H16.286V19.714C16.286 19.232 15.911 18.857 15.429 18.857H12C11.518 18.857 11.143 19.232 11.143 19.714V24.857H6C5.518 24.857 5.143 25.232 5.143 25.714V29.143C5.143 29.625 5.518 30 6 30H11.143V35.143C11.143 35.625 11.518 36 12 36H15.429C15.911 36 16.286 35.625 16.286 35.143V30H21.429C21.911 30 22.286 29.625 22.286 29.143ZM37.714 30.857C37.714 28.955 36.187 27.428 34.285 27.428C32.383 27.428 30.856 28.955 30.856 30.857C30.856 32.759 32.383 34.286 34.285 34.286C36.187 34.286 37.714 32.759 37.714 30.857ZM44.571 24C44.571 22.098 43.044 20.571 41.142 20.571C39.24 20.571 37.713 22.098 37.713 24C37.713 25.902 39.24 27.429 41.142 27.429C43.044 27.429 44.571 25.902 44.571 24ZM51.429 27.429C51.429 35.009 45.295 41.143 37.715 41.143C34.233 41.143 31.072 39.83 28.661 37.714H22.768C20.357 39.83 17.197 41.143 13.714 41.143C6.134 41.143 0 35.009 0 27.429C0 19.849 6.134 13.715 13.714 13.715H37.714C45.294 13.715 51.428 19.849 51.428 27.429H51.429Z" fill="#EE3A43"/>
</g>
<defs>
<clipPath id="clip0">
<rect width="51" height="48" fill="white"/>
</clipPath>
</defs>
</svg>
