<!-- Generated by IcoMoon.io -->
<svg version="1.1" xmlns="http://www.w3.org/2000/svg" width="48" height="48" viewBox="0 0 48 48">
<title>link</title>
<path d="M20.636 29.802c-0.624 0-1.248-0.238-1.724-0.714-4.459-4.459-4.459-11.716 0-16.175l9-9c2.16-2.16 5.032-3.35 8.088-3.35s5.927 1.19 8.088 3.35c4.459 4.46 4.459 11.716 0 16.175l-4.114 4.114c-0.952 0.952-2.495 0.952-3.447 0s-0.952-2.495 0-3.447l4.114-4.114c2.559-2.559 2.559-6.722 0-9.281-1.239-1.239-2.888-1.922-4.64-1.922s-3.401 0.683-4.64 1.922l-9 9c-2.559 2.559-2.559 6.722 0 9.281 0.952 0.952 0.952 2.495 0 3.447-0.476 0.476-1.1 0.714-1.724 0.714z"></path>
<path d="M12 47.438c-3.055 0-5.927-1.19-8.088-3.35-4.459-4.459-4.459-11.716 0-16.175l4.114-4.114c0.952-0.952 2.495-0.952 3.447 0s0.952 2.495 0 3.447l-4.114 4.114c-2.559 2.559-2.559 6.722 0 9.281 1.239 1.239 2.887 1.922 4.64 1.922s3.401-0.683 4.641-1.922l9-9c2.559-2.559 2.559-6.722 0-9.281-0.952-0.952-0.952-2.495 0-3.447s2.495-0.952 3.447 0c4.459 4.459 4.459 11.716 0 16.175l-9 9c-2.16 2.16-5.033 3.35-8.088 3.35z"></path>
</svg>
