<!-- Generated by IcoMoon.io -->
<svg version="1.1" xmlns="http://www.w3.org/2000/svg" width="41" height="48" viewBox="0 0 41 48">
<title>music</title>
<path d="M41.143 6v30c0 3.777-5.652 5.143-8.571 5.143s-8.571-1.366-8.571-5.143 5.652-5.143 8.571-5.143c1.768 0 3.536 0.321 5.143 1.045v-14.384l-20.571 6.348v18.991c0 3.777-5.652 5.143-8.571 5.143s-8.571-1.366-8.571-5.143 5.652-5.143 8.571-5.143c1.768 0 3.536 0.321 5.143 1.045v-25.902c0-1.125 0.75-2.116 1.821-2.464l22.286-6.857c0.241-0.080 0.482-0.107 0.75-0.107 1.42 0 2.571 1.152 2.571 2.571z"></path>
</svg>
