<!-- Generated by IcoMoon.io -->
<svg version="1.1" xmlns="http://www.w3.org/2000/svg" width="55" height="48" viewBox="0 0 55 48">
<title>newspaper-o</title>
<path d="M27.429 13.714h-10.286v10.286h10.286v-10.286zM30.857 30.857v3.429h-17.143v-3.429h17.143zM30.857 10.286v17.143h-17.143v-17.143h17.143zM48 30.857v3.429h-13.714v-3.429h13.714zM48 24v3.429h-13.714v-3.429h13.714zM48 17.143v3.429h-13.714v-3.429h13.714zM48 10.286v3.429h-13.714v-3.429h13.714zM6.857 36v-25.714h-3.429v25.714c0 0.938 0.777 1.714 1.714 1.714s1.714-0.777 1.714-1.714zM51.429 36v-29.143h-41.143v29.143c0 0.589-0.107 1.179-0.295 1.714h39.723c0.938 0 1.714-0.777 1.714-1.714zM54.857 3.429v32.571c0 2.839-2.304 5.143-5.143 5.143h-44.571c-2.839 0-5.143-2.304-5.143-5.143v-29.143h6.857v-3.429h48z"></path>
</svg>
