<svg width="45" height="48" viewBox="0 0 45 48" fill="none" xmlns="http://www.w3.org/2000/svg">
<g clip-path="url(#clip0)">
<path d="M44.571 29.411C44.571 32.17 42.991 34.474 40.071 34.474C36.803 34.474 35.946 31.501 33 31.501C30.857 31.501 30.054 32.84 30.054 34.822C30.054 36.911 30.911 38.92 30.884 40.983V41.117C30.589 41.117 30.295 41.117 30 41.144C27.241 41.412 24.455 41.948 21.67 41.948C19.768 41.948 17.786 41.198 17.786 39.002C17.786 36.056 20.759 35.198 20.759 31.931C20.759 29.011 18.455 27.431 15.696 27.431C12.883 27.431 10.285 28.985 10.285 32.065C10.285 35.467 12.883 36.94 12.883 38.788C12.883 39.726 12.294 40.556 11.651 41.172C10.821 41.949 9.642 42.11 8.517 42.11C6.321 42.11 4.124 41.815 1.954 41.467C1.472 41.387 0.963001 41.333 0.481001 41.253L0.133001 41.199C0.0790005 41.172 -0.000999451 41.172 -0.000999451 41.145V13.716C0.106001 13.796 1.687 13.984 1.954 14.037C4.124 14.385 6.32 14.68 8.517 14.68C9.642 14.68 10.821 14.519 11.651 13.742C12.294 13.126 12.883 12.296 12.883 11.358C12.883 9.50998 10.285 8.03698 10.285 4.63498C10.285 1.55498 12.883 0.000976562 15.723 0.000976562C18.455 0.000976562 20.759 1.58098 20.759 4.50098C20.759 7.76898 17.786 8.62598 17.786 11.572C17.786 13.768 19.768 14.518 21.67 14.518C24.75 14.518 27.804 13.822 30.858 13.661V13.715C30.778 13.822 30.59 15.403 30.537 15.67C30.189 17.84 29.894 20.036 29.894 22.233C29.894 23.358 30.055 24.537 30.832 25.367C31.448 26.01 32.278 26.599 33.216 26.599C35.064 26.599 36.537 24.001 39.939 24.001C43.019 24.001 44.573 26.599 44.573 29.412L44.571 29.411Z" fill="#F07941"/>
</g>
<defs>
<clipPath id="clip0">
<rect width="45" height="48" fill="white"/>
</clipPath>
</defs>
</svg>
