<!-- Generated by IcoMoon.io -->
<svg version="1.1" xmlns="http://www.w3.org/2000/svg" width="45" height="48" viewBox="0 0 45 48">
<title>puzzle-piece</title>
<path d="M44.571 29.411c0 2.759-1.58 5.063-4.5 5.063-3.268 0-4.125-2.973-7.071-2.973-2.143 0-2.946 1.339-2.946 3.321 0 2.089 0.857 4.098 0.83 6.161v0.134c-0.295 0-0.589 0-0.884 0.027-2.759 0.268-5.545 0.804-8.33 0.804-1.902 0-3.884-0.75-3.884-2.946 0-2.946 2.973-3.804 2.973-7.071 0-2.92-2.304-4.5-5.063-4.5-2.813 0-5.411 1.554-5.411 4.634 0 3.402 2.598 4.875 2.598 6.723 0 0.938-0.589 1.768-1.232 2.384-0.83 0.777-2.009 0.938-3.134 0.938-2.196 0-4.393-0.295-6.563-0.643-0.482-0.080-0.991-0.134-1.473-0.214l-0.348-0.054c-0.054-0.027-0.134-0.027-0.134-0.054v-27.429c0.107 0.080 1.688 0.268 1.955 0.321 2.17 0.348 4.366 0.643 6.563 0.643 1.125 0 2.304-0.161 3.134-0.938 0.643-0.616 1.232-1.446 1.232-2.384 0-1.848-2.598-3.321-2.598-6.723 0-3.080 2.598-4.634 5.438-4.634 2.732 0 5.036 1.58 5.036 4.5 0 3.268-2.973 4.125-2.973 7.071 0 2.196 1.982 2.946 3.884 2.946 3.080 0 6.134-0.696 9.188-0.857v0.054c-0.080 0.107-0.268 1.688-0.321 1.955-0.348 2.17-0.643 4.366-0.643 6.563 0 1.125 0.161 2.304 0.938 3.134 0.616 0.643 1.446 1.232 2.384 1.232 1.848 0 3.321-2.598 6.723-2.598 3.080 0 4.634 2.598 4.634 5.411z"></path>
</svg>
