<svg width="42" height="48" viewBox="0 0 42 48" fill="none" xmlns="http://www.w3.org/2000/svg">
<path d="M41.141 2.72378V34.5065C41.141 38.508 35.489 39.9551 32.57 39.9551C29.651 39.9551 23.999 38.508 23.999 34.5065C23.999 30.5051 29.651 29.0579 32.57 29.0579C34.338 29.0579 36.106 29.398 37.713 30.165V14.9262L17.142 21.6515V41.771C17.142 45.7724 11.49 47.2196 8.571 47.2196C5.652 47.2196 0 45.7724 0 41.771C0 37.7695 5.652 36.3224 8.571 36.3224C10.339 36.3224 12.107 36.6624 13.714 37.4295V9.98825C13.714 8.7964 14.464 7.74651 15.535 7.37783L37.821 0.113359C38.062 0.0286046 38.303 0 38.571 0C39.991 0 41.142 1.22046 41.142 2.72378H41.141Z" fill="#F07941"/>
</svg>
