<!-- Generated by IcoMoon.io -->
<svg version="1.1" xmlns="http://www.w3.org/2000/svg" width="48" height="48" viewBox="0 0 48 48">
<title>target</title>
<path d="M48 21h-4.731c-1.296-8.355-7.914-14.974-16.269-16.269v-4.731h-6v4.731c-8.355 1.296-14.974 7.914-16.269 16.269h-4.731v6h4.731c1.296 8.355 7.914 14.974 16.269 16.269v4.731h6v-4.731c8.355-1.296 14.974-7.914 16.269-16.269h4.731v-6zM37.164 21h-4.676c-0.904-2.557-2.93-4.583-5.487-5.487v-4.676c5.040 1.148 9.016 5.124 10.164 10.164zM24 27c-1.657 0-3-1.343-3-3s1.343-3 3-3c1.657 0 3 1.343 3 3s-1.343 3-3 3zM21 10.836v4.676c-2.557 0.904-4.583 2.93-5.487 5.487h-4.676c1.148-5.040 5.124-9.016 10.164-10.164zM10.836 27h4.676c0.904 2.557 2.93 4.583 5.487 5.487v4.676c-5.040-1.148-9.016-5.124-10.164-10.164zM27 37.164v-4.676c2.557-0.904 4.583-2.93 5.487-5.487h4.676c-1.148 5.040-5.124 9.016-10.164 10.164z"></path>
</svg>
