<svg width="48" height="48" viewBox="0 0 48 48" fill="none" xmlns="http://www.w3.org/2000/svg">
<path d="M48 21H43.269C41.973 12.645 35.355 6.026 27 4.731V0H21V4.731C12.645 6.027 6.026 12.645 4.731 21H0V27H4.731C6.027 35.355 12.645 41.974 21 43.269V48H27V43.269C35.355 41.973 41.974 35.355 43.269 27H48V21ZM37.164 21H32.488C31.584 18.443 29.558 16.417 27.001 15.513V10.837C32.041 11.985 36.017 15.961 37.165 21.001L37.164 21ZM24 27C22.343 27 21 25.657 21 24C21 22.343 22.343 21 24 21C25.657 21 27 22.343 27 24C27 25.657 25.657 27 24 27ZM21 10.836V15.512C18.443 16.416 16.417 18.442 15.513 20.999H10.837C11.985 15.959 15.961 11.983 21.001 10.835L21 10.836ZM10.836 27H15.512C16.416 29.557 18.442 31.583 20.999 32.487V37.163C15.959 36.015 11.983 32.039 10.835 26.999L10.836 27ZM27 37.164V32.488C29.557 31.584 31.583 29.558 32.487 27.001H37.163C36.015 32.041 32.039 36.017 26.999 37.165L27 37.164Z" fill="#F27FB2"/>
</svg>
