<?xml version="1.0" standalone="no"?>
<!DOCTYPE svg PUBLIC "-//W3C//DTD SVG 20010904//EN"
 "http://www.w3.org/TR/2001/REC-SVG-20010904/DTD/svg10.dtd">
<svg version="1.0" xmlns="http://www.w3.org/2000/svg"
 width="512.000000pt" height="512.000000pt" viewBox="0 0 512.000000 512.000000"
 preserveAspectRatio="xMidYMid meet">

<g transform="translate(0.000000,512.000000) scale(0.100000,-0.100000)"
fill="#000000" stroke="none">
<path d="M4229 4042 c-23 -21 -32 -39 -36 -72 -5 -50 -7 -47 107 -191 36 -45
77 -104 92 -130 15 -27 37 -58 48 -69 11 -11 20 -27 20 -36 0 -8 16 -39 35
-68 19 -29 35 -58 35 -64 0 -14 32 -85 42 -92 4 -3 17 -36 29 -73 12 -37 25
-67 30 -67 4 0 12 -23 18 -51 6 -27 19 -69 30 -92 10 -23 21 -62 25 -86 4 -24
13 -56 21 -72 8 -15 15 -43 15 -61 1 -18 7 -51 15 -73 8 -22 18 -69 21 -105 3
-36 9 -69 12 -74 21 -36 36 -571 21 -781 -17 -225 -110 -602 -210 -841 -89
-214 -238 -469 -353 -602 -51 -60 -61 -86 -52 -136 10 -51 56 -86 114 -86 44
0 50 3 104 61 75 79 209 280 292 439 163 314 268 654 323 1050 25 182 25 663
0 850 -73 542 -258 1019 -544 1402 -89 121 -122 148 -178 148 -35 0 -52 -6
-76 -28z"/>
<path d="M2560 3966 c-20 -7 -340 -221 -712 -474 l-676 -461 -499 -3 -498 -3
-52 -29 c-56 -31 -97 -81 -113 -137 -14 -49 -13 -1482 1 -1534 17 -62 102
-140 168 -154 34 -7 214 -11 521 -11 l469 0 633 -432 c348 -237 655 -446 681
-464 118 -82 218 -68 277 36 l25 45 0 1745 0 1745 -25 49 c-14 28 -37 59 -51
69 -34 24 -104 31 -149 13z m0 -363 c7 -1021 4 -3103 -4 -3103 -5 0 -24 11
-42 25 -18 14 -37 25 -43 25 -5 0 -27 16 -48 35 -21 19 -53 40 -71 46 -17 6
-37 19 -42 29 -5 10 -29 28 -53 39 -24 12 -58 34 -76 50 -18 17 -48 37 -66 45
-18 9 -47 29 -64 45 -18 17 -42 33 -54 37 -12 4 -37 20 -56 36 -18 16 -45 35
-60 41 -14 6 -46 28 -70 49 -24 21 -50 38 -57 38 -8 0 -23 9 -33 19 -26 26
-198 141 -210 141 -6 0 -25 14 -42 31 -18 17 -46 37 -63 44 -17 8 -49 30 -71
49 -22 20 -45 36 -52 36 -7 0 -17 9 -23 20 -11 20 -19 20 -413 19 -221 -1
-450 -1 -509 0 l-108 1 0 698 0 697 502 0 503 0 71 53 c39 28 74 52 78 52 10
0 424 279 444 299 21 22 138 101 149 101 5 0 135 85 288 190 154 104 283 189
288 190 4 0 7 -35 7 -77z"/>
<path d="M3793 3596 c-17 -8 -40 -27 -50 -42 -30 -46 -22 -90 35 -189 28 -49
70 -133 93 -185 23 -52 46 -96 50 -98 5 -2 11 -20 15 -40 4 -20 17 -60 30 -88
13 -28 24 -59 24 -70 0 -10 12 -46 25 -79 14 -33 25 -69 25 -80 0 -11 9 -51
19 -90 20 -73 41 -184 46 -245 11 -123 24 -381 20 -392 -3 -8 -9 -63 -14 -123
-26 -311 -174 -778 -336 -1057 -24 -42 -47 -87 -50 -101 -9 -36 19 -94 57
-117 73 -45 129 -14 199 110 59 103 159 322 159 348 0 10 11 41 25 68 30 59
59 146 79 234 8 36 21 84 30 106 8 23 20 81 26 128 6 47 15 98 21 113 21 57
33 340 21 523 -13 212 -27 336 -40 364 -5 12 -14 48 -20 81 -5 33 -14 74 -20
90 -6 17 -16 55 -23 85 -6 30 -16 57 -20 61 -5 3 -13 29 -19 58 -5 30 -19 68
-30 86 -11 18 -20 41 -20 52 0 11 -12 42 -26 69 -14 27 -32 70 -40 96 -8 26
-21 54 -29 62 -8 7 -20 31 -28 52 -20 59 -95 182 -121 199 -34 22 -77 27 -113
11z"/>
<path d="M3334 3016 c-73 -32 -97 -117 -49 -174 14 -17 25 -36 25 -42 0 -7 16
-41 35 -76 19 -34 35 -70 35 -79 0 -9 11 -40 24 -68 50 -111 74 -237 82 -436
5 -112 3 -169 -10 -250 -23 -142 -28 -159 -75 -281 -22 -58 -41 -111 -41 -118
0 -18 -43 -100 -74 -141 -37 -49 -34 -96 7 -142 62 -69 121 -56 193 44 41 56
124 231 124 260 0 10 13 51 29 90 16 40 33 97 39 127 45 232 45 238 38 413 -3
95 -11 190 -17 212 -6 22 -15 66 -20 98 -5 32 -16 71 -24 87 -8 16 -15 39 -15
52 0 13 -13 50 -30 83 -16 33 -30 67 -30 75 0 19 -59 142 -94 198 -42 67 -97
91 -152 68z"/>
</g>
</svg>
